PathFileType	3	(X/Y/Z)	F:\ViconData\AntennenMessung\Messung1\Session1\ID17.trc
DataRate	CameraRate	NumFrames	NumMarkers	Units	OrigDataRate	OrigDataStartFrame	OrigNumFrames
120.0	120.0	4	70	mm	120.0	221	880	
Frame#	Time	Ashort			Along			Atop			A4			Bshort			Blong			Btop			B4			Cshort			Clong			Ctop			C4			Dshort			Dlong			Dtop			D4			Eshort			Elong			Etop			E4			Fshort			Flong			Ftop			F4			Gshort			Glong			Gtop			G4			Hshort			Hlong			Htop			H4			I1			I2			I3			I4			I5			WandAshort			WandAlong			WandAtop			WandA4			WandA15			WandBshort			WandB4			WandB5			WandBtop			WandBlong			WandCshort			WandClong			WandCtop			WandC4			WandC5			Acenter			Aantenna			Bcenter			Bantenna			Ccenter			Cantenna			Dcenter			Dantenna			Ecenter			Eantenna			Fcenter			Fantenna			Gcenter			Gantenna			Hcenter			Hantenna			Icenter			Iantenna			
		X1	Y1	Z1	X2	Y2	Z2	X3	Y3	Z3	X4	Y4	Z4	X5	Y5	Z5	X6	Y6	Z6	X7	Y7	Z7	X8	Y8	Z8	X9	Y9	Z9	X10	Y10	Z10	X11	Y11	Z11	X12	Y12	Z12	X13	Y13	Z13	X14	Y14	Z14	X15	Y15	Z15	X16	Y16	Z16	X17	Y17	Z17	X18	Y18	Z18	X19	Y19	Z19	X20	Y20	Z20	X21	Y21	Z21	X22	Y22	Z22	X23	Y23	Z23	X24	Y24	Z24	X25	Y25	Z25	X26	Y26	Z26	X27	Y27	Z27	X28	Y28	Z28	X29	Y29	Z29	X30	Y30	Z30	X31	Y31	Z31	X32	Y32	Z32	X33	Y33	Z33	X34	Y34	Z34	X35	Y35	Z35	X36	Y36	Z36	X37	Y37	Z37	X38	Y38	Z38	X39	Y39	Z39	X40	Y40	Z40	X41	Y41	Z41	X42	Y42	Z42	X43	Y43	Z43	X44	Y44	Z44	X45	Y45	Z45	X46	Y46	Z46	X47	Y47	Z47	X48	Y48	Z48	X49	Y49	Z49	X50	Y50	Z50	X51	Y51	Z51	X52	Y52	Z52	X53	Y53	Z53	X54	Y54	Z54	X55	Y55	Z55	X56	Y56	Z56	X57	Y57	Z57	X58	Y58	Z58	X59	Y59	Z59	X60	Y60	Z60	X61	Y61	Z61	X62	Y62	Z62	X63	Y63	Z63	X64	Y64	Z64	X65	Y65	Z65	X66	Y66	Z66	X67	Y67	Z67	X68	Y68	Z68	X69	Y69	Z69	X70	Y70	Z70	
221	1.8333333	-1038.2369	214.46925	-1644.1727	-1109.3925	204.06114	-1599.3339	-1063.6995	173.11836	-1625.6925	-1054.1959	262.19669	-1634.9832	-1352.9384	234.81844	1003.6626	-1281.3352	227.29337	1052.3092	-1322.8312	193.63838	1021.0845	-1284.7249	287.80057	1052.8876	813.96912	187.61852	1209.46	892.30951	178.37279	1179.2679	844.45209	145.53769	1198.2075	860.9281	292.53247	1168.3237	1115.7493	209.83948	-1401.7963	1056.2632	193.98276	-1460.285	1095.1134	162.27695	-1423.9476	1069.8212	238.71065	-1425.8506	-1204.5706	1685.9996	-1563.0908	-1129.1458	1688.2861	-1606.0345	-1173.1788	1724.4047	-1581.9684	-1134.0598	1580.9536	-1603.8529	-1239.4861	1698.9272	1119.4219	-1309.2291	1698.585	1071.8586	-1270.3281	1736.1693	1096.8423	-1245.4014	1592.6047	1110.6661	988.83588	1664.2115	1162.2009	955.72998	1702.2612	1181.0275	922.91003	1662	1215.04	939.78876	1659.4172	1159.8752	999.0213	1668.4244	-1579.4363	1058.7347	1669.9708	-1518.6365	1024.9503	1708.0056	-1551.1145	1059.2354	1672.1069	-1585.4382	-184.52037	167.23677	-293.97198	-175.22578	174.74715	-377.51367	-180.08304	132.56497	-335.31583	-211.81798	170.2193	-333.1394	-133.10097	168.92888	-326.16669																																														-1068.6613	210.019	-1625.0007	-1073.8575	248.66447	-1624.2764	-1321.5171	231.51624	1025.0099	-1320.1724	270.28543	1029.0276	848.19482	183.57918	1196.2695	852.00861	222.342	1194.2948	1088.7131	202.63269	-1428.3789	1082.6399	240.92673	-1432.584	-1171.8901	1686.9902	-1581.6975	-1170.5479	1648.0144	-1581.4153	-1270.9224	1698.7729	1097.9829	-1271.5419	1659.796	1099.1718	953.50305	1704.8206	1182.2937	972.7525	1731.7634	1161.6895	1026.4049	1669.1335	-1551.5544	1027.8632	1630.1633	-1551.9955	-180.2988	170.64795	-331.91617	-180.51891	209.49284	-328.44852
222	1.8416667	-1038.2244	214.47275	-1644.3177	-1109.3744	204.04306	-1599.3428	-1063.7498	173.09506	-1625.6608	-1054.1403	262.16595	-1634.9385	-1352.9521	234.80035	1003.7819	-1281.422	227.20432	1052.27	-1322.8475	193.69914	1021.0679	-1284.6709	287.819	1052.8304	813.93097	187.62883	1209.4419	892.14661	178.39517	1179.2491	844.3858	145.51849	1198.2491	860.92938	292.65427	1168.4525	1115.7144	209.56334	-1401.6395	1056.1714	193.85921	-1460.259	1095.1304	162.28932	-1423.949	1069.781	238.66617	-1425.8406	-1204.5867	1685.9921	-1563.0676	-1129.1409	1688.274	-1606.0149	-1173.1766	1724.4097	-1581.9705	-1134.0612	1580.9666	-1603.86	-1239.4935	1698.9528	1119.4349	-1309.2432	1698.6244	1071.8741	-1270.3267	1736.1423	1096.8453	-1245.4022	1592.5939	1110.6587	988.89069	1664.246	1162.1869	955.85547	1702.2616	1181.0594	922.78784	1661.9948	1215.0566	939.77472	1659.4161	1159.8386	999.02246	1668.4321	-1579.4626	1058.7313	1669.9685	-1518.6345	1024.9443	1708.0029	-1551.1136	1059.2297	1672.1008	-1585.4407	-184.53598	167.25613	-293.96198	-175.21318	174.73178	-377.50928	-180.09152	132.51985	-335.29877	-211.85576	170.24451	-333.11993	-133.11436	168.91534	-326.13043																																														-1068.7538	209.9975	-1625.0194	-1073.9937	248.63805	-1624.3481	-1321.5492	231.46555	1025.069	-1320.2167	270.22586	1029.1754	848.10852	183.59402	1196.2487	851.89844	222.35599	1194.2123	1088.7296	202.44629	-1428.2056	1082.6243	240.75085	-1432.2659	-1171.882	1686.9812	-1581.6846	-1170.5338	1648.0056	-1581.387	-1270.9351	1698.8047	1097.9956	-1271.5702	1659.8282	1099.1963	953.53436	1704.9326	1182.3855	972.84375	1731.8983	1161.8674	1026.4054	1669.1366	-1551.5663	1027.8706	1630.1667	-1552.0201	-180.30142	170.65166	-331.91022	-180.51529	209.49799	-328.45819
223	1.85	-1038.2163	214.51518	-1644.2369	-1109.369	204.06735	-1599.3569	-1063.7001	173.11461	-1625.7191	-1054.2081	262.21155	-1634.9801	-1352.9094	234.8036	1003.7291	-1281.339	227.23357	1052.3324	-1322.8427	193.68617	1021.0421	-1284.5959	287.85104	1052.7758	813.97162	187.57515	1209.416	892.09119	178.38196	1179.2606	844.39209	145.51489	1198.3361	860.9577	292.61801	1168.4078	1115.719	209.58116	-1401.6454	1056.178	193.92084	-1460.3052	1095.146	162.3111	-1423.9679	1069.8064	238.69547	-1425.8427	-1204.5071	1685.9143	-1563.2284	-1129.1498	1688.2505	-1605.9857	-1173.1753	1724.3928	-1581.9664	-1134.0524	1580.9548	-1603.8586	-1239.4681	1698.9154	1119.4128	-1309.2576	1698.6733	1071.8942	-1270.3344	1736.1702	1096.8523	-1245.5146	1592.7053	1110.6738	988.83533	1664.2042	1162.1974	955.7757	1702.2385	1180.9985	922.70673	1662.009	1215.0226	939.76813	1659.4106	1159.843	999.02112	1668.4404	-1579.4633	1058.8746	1670.1461	-1518.6248	1024.942	1708.0098	-1551.1211	1059.2294	1672.1078	-1585.4471	-184.57324	167.26398	-294.0274	-175.22992	174.72598	-377.51672	-180.09274	132.54533	-335.31171	-211.85381	170.2506	-333.13855	-133.12862	168.92345	-326.14944																																														-1068.6818	210.04172	-1625.0205	-1073.895	248.68481	-1624.2897	-1321.5496	231.48663	1025.0255	-1320.2235	270.24945	1029.1104	848.06622	183.56285	1196.2549	851.80939	222.32486	1194.1349	1088.7565	202.48955	-1428.2089	1082.6646	240.798	-1432.2524	-1171.8843	1686.9255	-1581.7384	-1170.5414	1647.9495	-1581.5011	-1270.9641	1698.806	1097.9675	-1271.6212	1659.829	1099.131	953.45782	1704.9052	1182.3167	972.77271	1731.8484	1161.7742	1026.4827	1669.2229	-1551.5496	1028.0306	1630.2561	-1551.98	-180.33125	170.65181	-331.93259	-180.57442	209.49861	-328.48779
224	1.8583333	-1038.2006	214.38687	-1644.1447	-1109.3864	204.0713	-1599.3237	-1063.7515	173.11569	-1625.675	-1054.1938	262.18616	-1634.965	-1353.0515	234.80554	1003.6575	-1281.2831	227.07504	1052.3762	-1322.812	193.67235	1021.0524	-1284.6979	287.81372	1052.8656	814.00952	187.62367	1209.4395	892.17657	178.45647	1179.1803	844.39789	145.52541	1198.2618	860.96155	292.4874	1168.3978	1115.7177	209.57756	-1401.6417	1056.2144	193.9463	-1460.3005	1095.1495	162.31329	-1423.9828	1069.8246	238.69167	-1425.8339	-1204.526	1685.9269	-1563.2236	-1129.161	1688.2812	-1606.0009	-1173.1769	1724.413	-1581.9667	-1134.0565	1580.9508	-1603.8402	-1239.4928	1698.9487	1119.4291	-1309.2931	1698.705	1071.9065	-1270.3379	1736.1692	1096.848	-1245.3998	1592.5785	1110.655	988.89026	1664.2516	1162.1885	955.77887	1702.3068	1181.0481	922.93842	1662.0173	1215.0864	939.7951	1659.4181	1159.8398	999.02869	1668.4171	-1579.4462	1058.8519	1670.1353	-1518.6292	1024.9567	1708.012	-1551.1183	1059.2369	1672.1134	-1585.4407	-184.57472	167.28604	-294.03232	-175.2424	174.73654	-377.51489	-180.10153	132.54782	-335.31506	-211.84715	170.21667	-333.12024	-133.13451	168.90863	-326.1395																																														-1068.6503	209.97437	-1624.9724	-1073.7876	248.6275	-1624.2355	-1321.4854	231.40541	1025.0856	-1320.1229	270.16083	1029.228	848.08673	183.6272	1196.2477	851.83966	222.39209	1194.1986	1088.7637	202.49687	-1428.213	1082.6757	240.80705	-1432.2461	-1171.8842	1686.9467	-1581.751	-1170.5393	1647.9705	-1581.5269	-1270.984	1698.8386	1097.9885	-1271.6588	1659.8627	1099.1794	953.53979	1704.88	1182.3235	972.78137	1731.8313	1161.7227	1026.4893	1669.2057	-1551.5294	1028.0282	1630.2382	-1551.9424	-180.33717	170.66908	-331.93921	-180.57733	209.51631	-328.49911
